<svg xmlns="http://www.w3.org/2000/svg" width="472" height="368" fill="none" viewBox="0 0 472 368">
  <g clip-path="url(#clip0_1077_2913)">
    <path fill="#A0616A" d="M126.706 345.528l7.955 2.594 14.485-27.466-11.741-3.83-10.699 28.702z"/>
    <path fill="#2F2E41" d="M137.058 349.657l1.881-5.045-2.136-.562-8.689-2.306-2.012-.529-7.805 16.403-.418.879 5.648 1.843.517-.84 2.344-3.821.594 4.779.129 1.051 14.974 4.885c.894.286 1.871.23 2.72-.155.85-.384 1.503-1.067 1.817-1.899 1.662-2.555-8.566-12.587-9.564-14.683z"/>
    <path fill="#A0616A" d="M70.448 351.342h8.425l4.008-30.397-12.435.001.002 30.396z"/>
    <path fill="#2F2E41" d="M81.676 352.051v-5.342l-2.215.127-9.015.499-2.087.12-1.595 17.893-.085.959h5.981l.193-.953.869-4.33 2.243 4.33.491.953h15.86a3.712 3.712 0 002.513-.984 3.247 3.247 0 001.047-2.353c.67-2.925-12.52-9.247-14.2-10.919zM130.571 160.604l13.231 16.404s-7.307-.475 0 2.496c7.307 2.972 7.514 1.922 7.411 5.522-.104 3.601-7.553 3.063-3.828 6.75 3.724 3.686 28.671 52.7 28.671 52.7s-20.442 70.962-23.06 73.857c-2.618 2.895-5.541.161-2.618 2.895 2.923 2.734 6.577-.684 2.923 2.734-3.653 3.417-8.665 9.448-8.665 9.448l-14.717-1.93s-16.076-14.353 9.499-38.276c0 0 6.438-23.934 3.584-23.928-2.853.005-2.853 3.864-2.853-3.875v-7.74l-33.868-59.349s-21.614-15.772-21.274-22.981c.34-7.209 45.564-14.727 45.564-14.727z"/>
    <path fill="#2F2E41" d="M106.536 177.007s15.345 72.452 13.153 74.503c-2.192 2.05-2.192 7.195-2.192 7.195L82.423 331.48l-13.883.683c-.328-20.821-.418-36.614 11.691-51.263l5.846-107.31 20.459 3.417z"/>
    <path fill="#E6E6E6" d="M126.458 91.003l-16.724-12.35-8.778-.477-13.026 7.806-3.19 15.221-7.543 17.14 11.064 46.256s1.038 3.32-1.682 3.718c-2.719.399-2.393 5.292-2.393 5.292s.554 4.24-2.087 4.614c-2.64.373-9.681.373-3.52 7.783s54.893-20.616 54.893-20.616l7.078-34.74s13.726-17.245-1.056-27.122l-13.036-12.525z"/>
    <path fill="#A0616A" d="M53.452 196.026a7.356 7.356 0 01-1.541-2.932 7.063 7.063 0 01-.072-3.266 7.304 7.304 0 011.414-2.988 7.926 7.926 0 012.632-2.149l21.035-66.035 13.153 6.195-22.908 63.294a7.13 7.13 0 01.401 5.372c-.574 1.777-1.824 3.294-3.515 4.266a8.575 8.575 0 01-5.656 1.005c-1.953-.323-3.712-1.306-4.943-2.762z"/>
    <path fill="#E6E6E6" d="M90.95 85.37s-3.76-1.869-6.331 6.22c-2.06 6.475-18.766 45.047-18.98 54.425a6.421 6.421 0 00-3.52 1.969 5.711 5.711 0 00-1.493 3.574l20.657 2.59c3.61-2.848 4.556-6.694 3.16-7.836l4.485-11.458 18.711-36.457-13.945-11.72-2.743-1.307z"/>
    <path fill="#A0616A" d="M201.326 174.321a7.059 7.059 0 00.035-3.267 7.318 7.318 0 00-1.447-2.974 7.94 7.94 0 00-2.655-2.123 8.5 8.5 0 00-3.366-.872l-48.255-51.552-10.236 11.425 49.916 47.804c.028 1.855.783 3.637 2.122 5.006 1.339 1.37 3.168 2.232 5.141 2.425a8.53 8.53 0 005.565-1.382c1.612-1.082 2.743-2.679 3.18-4.49z"/>
    <path fill="#E6E6E6" d="M116.359 89.716s2.526-3.206 8.584 3.047c4.851 5.006 37.746 33.026 42.274 41.395a6.737 6.737 0 014.085.351c1.283.538 2.337 1.46 2.998 2.62l-17.428 10.69c-4.571-1.107-7.203-4.192-6.472-5.786l-9.341-8.518-33.725-25.302 7.155-16.21 1.87-2.287z"/>
    <path fill="#A0616A" d="M123.114 60.773c3.798-9.135-1.04-19.42-10.806-22.972-9.766-3.553-20.761.973-24.559 10.108-3.798 9.135 1.04 19.42 10.806 22.973 9.766 3.552 20.761-.973 24.559-10.109z"/>
    <path fill="#2F2E41" d="M128.099 38.073c-1.142-1.151-2.654-1.923-4.308-2.197a8.185 8.185 0 00-4.853.678l1.146-5.983-9.518-1.363c-4.787-.686-9.719-1.366-14.426-.304-3.37.807-6.44 2.458-8.88 4.777-2.441 2.318-4.159 5.216-4.968 8.38a13.875 13.875 0 00-6.924-2.126 13.98 13.98 0 00-7.078 1.622c-2.15 1.148-3.914 2.838-5.09 4.877a11.734 11.734 0 00-1.562 6.658c.228 3.404 1.93 6.544 2.982 9.809 4 12.406-2.625 27.05-14.931 33 3.963 2.813 8.056 5.687 12.856 6.91 4.8 1.224 10.537.42 13.698-3.174 1.618-1.838 2.398-4.18 3.142-6.456l9.029-27.615 4.865 8.217c1.554 2.032.998 4.876-.121 7.144-1.12 2.269-2.746 4.37-3.247 6.823-.5 2.454.664 5.495 3.27 6.037 3.523-7.751 7.122-16.011 5.755-24.336-.532-3.24-1.806-6.563-.805-9.705.773-2.428 2.821-4.338 5.095-5.712a21.315 21.315 0 017.855-2.813c6.183-.92 13.88.315 17.51-4.457a6.875 6.875 0 001.313-4.423 6.965 6.965 0 00-1.805-4.268z"/>
    <path fill="#6C63FF" d="M116.037 147.993c8.874 0 16.068-6.729 16.068-15.03 0-8.3-7.194-15.029-16.068-15.029-8.873 0-16.067 6.729-16.067 15.029 0 8.301 7.194 15.03 16.067 15.03z"/>
    <path fill="#fff" d="M119.788 125.4c.086.327.213.643.381.94.141.336.378.629.686.846.308.217.675.351 1.059.385a1.03 1.03 0 00.191-.025c.687-.159 1.106-.937 1.113-1.909a3.88 3.88 0 00-.131-.998 3.877 3.877 0 00-.376-.93c-.488-.862-1.249-1.374-1.938-1.215-.913.21-1.353 1.512-.985 2.906z"/>
    <path fill="#3F3D56" d="M121.026 126.336c.13.497.445.935.888 1.236.064-.003.128-.012.191-.026.687-.159 1.106-.937 1.113-1.909 0-.336-.044-.671-.131-.997a3.884 3.884 0 00-.376-.931 2.317 2.317 0 00-1.422.988 2.056 2.056 0 00-.263 1.639z"/>
    <path fill="#fff" d="M112.954 126.977c.353 1.338 1.322 2.277 2.206 2.164.038-.004.074-.011.111-.019.91-.21 1.35-1.512.982-2.907a3.918 3.918 0 00-.375-.928c-.489-.864-1.25-1.376-1.939-1.217-.913.21-1.353 1.512-.985 2.907z"/>
    <path fill="#3F3D56" d="M114.26 127.896c.131.503.451.944.9 1.245a.83.83 0 00.111-.019c.91-.21 1.35-1.512.982-2.906a3.908 3.908 0 00-.375-.929 2.304 2.304 0 00-1.373.999 2.054 2.054 0 00-.245 1.61z"/>
    <path fill="#fff" d="M126.49 131.383c.977 3.707-.571 7.253-3.459 7.919-2.887.666-6.021-1.799-6.998-5.507 3.563.837 7.051.084 10.457-2.412z"/>
    <path fill="#000" d="M100.439 136.59a14.123 14.123 0 01.615-9.026c1.191-2.878 3.299-5.343 6.039-7.062-2.557 2.747-3.96 6.27-3.949 9.913.012 3.643 1.437 7.158 4.011 9.891 2.574 2.734 6.121 4.5 9.983 4.971 3.862.47 7.775-.387 11.011-2.413-1.932 2.075-4.435 3.613-7.237 4.448a17.123 17.123 0 01-8.655.288c-2.859-.648-5.473-2.016-7.557-3.958-2.084-1.941-3.558-4.381-4.261-7.052z" opacity=".2"/>
    <path fill="#F2F2F2" d="M465.453 356.572a1.635 1.635 0 01-.902-.223 1.486 1.486 0 01-.602-.667 1.362 1.362 0 01-.084-.869c.067-.291.229-.556.463-.758l.106-.396-.042-.095a3.978 3.978 0 00-1.543-1.734 4.372 4.372 0 00-2.312-.645 4.38 4.38 0 00-2.307.661 3.965 3.965 0 00-1.529 1.745c-1.258 2.834-2.86 5.673-3.254 8.669-.174 1.325-.1 2.668.216 3.969-2.954-6.029-4.488-12.581-4.498-19.213a41.68 41.68 0 01.296-4.981c.164-1.356.39-2.702.681-4.039 1.583-7.252 4.983-14.049 9.92-19.833 2.39-1.22 4.322-3.095 5.537-5.374.44-.819.751-1.693.924-2.596-.27.033-1.017-3.807-.813-4.042-.376-.534-1.048-.799-1.459-1.319-2.04-2.588-4.851-2.136-6.319 1.381-3.135 1.48-3.165 3.934-1.242 6.295 1.224 1.502 1.393 3.534 2.466 5.142-.11.133-.225.261-.336.393a46.845 46.845 0 00-5.255 7.788 18.413 18.413 0 00-1.249-9.094c-1.196-2.699-3.438-4.972-5.413-7.306a4.31 4.31 0 00-2.037-1.344 4.581 4.581 0 00-2.493-.06 4.347 4.347 0 00-2.108 1.246 3.897 3.897 0 00-1.025 2.235c.293.155.58.319.861.493.353.22.626.535.784.903.158.369.194.773.102 1.161-.092.387-.306.74-.616 1.011-.31.272-.7.449-1.119.51l-.043.006c.104.988.289 1.968.552 2.931-2.532 9.162 2.935 12.499 10.743 12.648.172.083.34.166.513.244a45.399 45.399 0 00-2.767 12.178 42.69 42.69 0 00.036 7.362l-.014-.087c-.565-2.723-2.118-5.18-4.397-6.957-3.383-2.6-8.164-3.557-11.814-5.647a2.55 2.55 0 00-2.602-.006 2.32 2.32 0 00-.895.952 2.13 2.13 0 00-.205 1.254l.014.091a14.508 14.508 0 012.448 1.208c.353.22.626.535.784.904.158.368.194.772.102 1.16-.092.387-.306.74-.616 1.011-.31.272-.7.449-1.119.51l-.043.006-.088.012a19.495 19.495 0 003.857 5.651c1.584 7.998 8.386 8.757 15.661 6.428h.005a45.974 45.974 0 003.451 9.424h12.329c.044-.128.084-.26.124-.388a14.992 14.992 0 01-3.412-.19c.915-1.05 1.83-2.108 2.745-3.158a1.1 1.1 0 00.057-.062c.464-.538.932-1.071 1.396-1.608l.001-.001a18.038 18.038 0 00-.602-4.889v-.001z"/>
    <path fill="#CCC" d="M0 366.904a.72.72 0 00.238.539.85.85 0 00.576.223h470.229a.84.84 0 00.575-.223.738.738 0 00.239-.539.734.734 0 00-.239-.538.84.84 0 00-.575-.223H.814a.85.85 0 00-.576.222.72.72 0 00-.238.539z"/>
    <path fill="#FFB6B6" d="M333.169 356.423h-9.926l-4.721-35.812 14.649.002-.002 35.81z"/>
    <path fill="#2F2E41" d="M333.518 366.109l-30.522-.001v-.361c.001-2.947 1.252-5.774 3.48-7.858 2.228-2.084 5.25-3.255 8.4-3.255h.001l5.575-3.956 10.402 3.957h2.664v11.474z"/>
    <path fill="#FFB6B6" d="M376.464 356.423h-9.925l-4.721-35.812 14.648.002-.002 35.81z"/>
    <path fill="#2F2E41" d="M376.814 366.109l-30.522-.001v-.361c0-2.947 1.252-5.774 3.48-7.858 2.228-2.084 5.249-3.255 8.4-3.255h.001l5.575-3.956 10.402 3.957h2.664v11.474zM308.455 161.299s-9.549 27.435-7.786 31.046c1.762 3.611 4.77.798 1.762 3.611-3.007 2.813-5.632-.177-2.816 4.6 2.816 4.777 7.083 44.104 8.959 46.008 1.877 1.904 4.457 1.955 2.164 3.805-2.292 1.85-5.299-1.901-2.292 1.85 3.007 3.751 10.987 90.278 10.987 90.278h15.59s3.882-4.186 1.684-6.911c-2.197-2.724.193-3.775 0-5.594-.193-1.819.538-5.741.674-7.531s2.77-44.426-3.559-69.056l11.542-46.896 13.981 56.681s-6.431 47.543 0 62.827c0 0-5.185 4.039-2.886 6.379 2.3 2.341 4.305.466 2.3 2.341-2.005 1.875 3.007 8.439 3.007 8.439l17.042-.937 9.645-88.834s1.626-9.264 0-10.851c-1.626-1.588-1.626 4.038-1.626-1.588v-7.501s-.941-46.14-1.067-48.857c-.126-2.717-12.155-22.409-12.155-22.409l-65.15-.9z"/>
    <path fill="#6C63FF" d="M308.598 66.54v54.097a48.96 48.96 0 012.853 16.243c-.062 9.197-2.224 19.795-2.217 24.429a5.69 5.69 0 00.212 1.824c9.572 25.951 60.221 2.368 64.826.16.219-.103.335-.16.335-.16l-.999-29.069.171-8.358 1.184-57.337-1.061-.793-9.291-6.931-.91-.679-2.791 3.808-24.884-1.6-9.496-2.457-2.962 1.126-13.356 5.082-1.614.614z"/>
    <path fill="#FFB6B6" d="M293.864 175.386l3.271-16.906 10.585.401-4.139 17.758a5.45 5.45 0 01.777 3.064 5.51 5.51 0 01-1.063 2.987 6.083 6.083 0 01-2.586 2.015 6.535 6.535 0 01-3.333.44 6.364 6.364 0 01-3.081-1.267 5.762 5.762 0 01-1.906-2.595 5.401 5.401 0 01-.16-3.145 5.661 5.661 0 011.635-2.752z"/>
    <path fill="#6C63FF" d="M310.223 66.424c5.439 1.318 8.545 7.913 10.455 12.856 2.46 6.35-1.529 45.501-6.382 51.212-3.764 4.429-2.87 3.578-1.628 7.246 1.243 3.668 4.113.09 1.529 5.547-2.584 5.457-4.783 4.472-3.062 6.798 1.721 2.327 3.729 2.059 1.529 5.548-2.201 3.488-2.01 4.741-2.489 6.082-.478 1.342-1.055 11.004-1.055 11.004s-11.189-1.702-17.023.354c0 0 4.019-9.482 2.393-11.182-1.625-1.7-3.729-2.059-2.007-4.205 1.722-2.147 5.165-1.967 1.531-3.4-3.634-1.432-.568-21.65-.568-21.65-4.079-13.307-1.237-33.212 2.893-54.344.611-3.125 2.299-5.977 4.806-8.12 2.507-2.142 5.696-3.458 9.078-3.746z"/>
    <path fill="#FFB6B6" d="M380.815 174.264l.791-17.164 10.545-.946-1.527 18.119a5.547 5.547 0 011.214 2.937 5.427 5.427 0 01-.621 3.094 5.91 5.91 0 01-2.27 2.325 6.472 6.472 0 01-3.238.859 6.477 6.477 0 01-3.236-.865 5.906 5.906 0 01-2.264-2.33 5.427 5.427 0 01-.615-3.095 5.548 5.548 0 011.221-2.934z"/>
    <path fill="#6C63FF" d="M369.792 66.7l.295.032a17.756 17.756 0 017.657 2.696c2.281 1.468 4.144 3.433 5.43 5.726 3.357 5.98 13.979 46.481 11.378 52.039-2.425 5.183-2.325 3.908-.562 7.385 1.762 3.477 4.087-.432 2.318 5.302-1.769 5.734-4.091 5.038-2.048 7.124 2.042 2.087 3.993 1.567 2.318 5.302-1.675 3.736-1.304 4.952-1.583 6.343-.28 1.39.549 11.035.549 11.035s-11.333-.267-16.815 2.51c0 0 2.608-9.904.751-11.383-1.857-1.478-3.994-1.566-2.598-3.911 1.395-2.346 4.832-2.604 1.024-3.562-3.808-.959-3.701-21.379-3.701-21.379l-4.413-65.26z"/>
    <path fill="#FFB6B6" d="M342.622 44.824c.445.096.889.18 1.334.244 1.359.208 2.738.275 4.112.198 3.58-.18 7.036-1.283 9.986-3.189 2.95-1.905 5.279-4.538 6.727-7.605a17.104 17.104 0 001.478-9.774c-.482-3.323-1.938-6.456-4.208-9.052-2.269-2.596-5.263-4.553-8.649-5.654a20.683 20.683 0 00-10.533-.586c-3.502.719-6.722 2.33-9.304 4.657-2.582 2.326-4.425 5.276-5.324 8.522-.041.147-.082.288-.117.435-1.167 4.69-.296 9.621 2.423 13.71s7.062 7 12.075 8.094z"/>
    <path fill="#2F2E41" d="M360.535 42.682c2.7-1.976 2.962-5.743 5.265-8.118 3.852-3.97 5.661-8.24 3.644-12.945-1.785-4.16-1.406-9.275-5.249-11.953 1.888-.64 2.332-1.967.666-1.991-1.123-.017-5.31 1.991-3.295-.51 2.015-2.501-1.799-1.514-1.547-2.538.252-1.024 1.87-1.591 2.583-.78-2.277-2.496-7.251-1.964-8.867.95-2.27-3.183-4.68-5.373-8.154-3.353-3.412 1.983-3.367 4.435-7.036 3.846-1.725-.277-1.888 2.771-3.066 3.981s-2.901 2.147-4.62 1.843c-1.72-.303-3.035-2.308-2.071-3.675l-4.053 8.65-1.633-1.875c-2.596 1.582-1.743 5.711.869 7.269 2.613 1.557 7.599-2.043 9.017.534 2.235 4.061 7.477 2.01 11.078-.86 4.366-3.48 9.637 7.103 7.533 12.095 2.183-2.004 6.22-.34 7.35 2.318 1.131 2.658.302 5.653-.536 8.405l2.122-1.293z"/>
    <path fill="#3F3D56" d="M323.567 60.843l.678.806 1.82 2.163 6.735 18.611 31.811-21.778-.91-.679-4.844-9.632-24.883-1.6-7.444 10.983-2.963 1.126z"/>
    <path fill="#fff" d="M357.431 108.312c-1.602 16.104-13.07 28.274-25.613 27.182-12.543-1.092-21.412-15.032-19.81-31.137 13.012 7.985 28.088 9.509 45.423 3.955zM327.799 89.16a11.121 11.121 0 01-.563 2.819c-.83 2.395-2.438 4.083-4.239 4.28a2.959 2.959 0 01-.551.017c-2.015-.122-3.61-2.11-4.152-4.838a11 11 0 01-.171-2.863c.061-.948.248-1.886.555-2.79.908-2.652 2.772-4.448 4.792-4.326 2.676.162 4.612 3.612 4.329 7.701z"/>
    <path fill="#3F3D56" d="M324.823 92.368c-.097 1.458-.745 2.836-1.827 3.89a2.945 2.945 0 01-.55.017c-2.015-.122-3.61-2.11-4.152-4.838a11 11 0 01-.171-2.863c.061-.948.248-1.885.555-2.79 1.747.114 3.374.871 4.526 2.105 1.151 1.235 1.734 2.845 1.619 4.48z"/>
    <path fill="#fff" d="M347.842 90.371c-.271 3.927-2.49 7.018-5.033 7.118a2.943 2.943 0 01-.32-.002c-2.67-.162-4.606-3.612-4.323-7.701.061-.946.248-1.882.555-2.785.908-2.657 2.772-4.453 4.792-4.331 2.676.162 4.612 3.612 4.329 7.701z"/>
    <path fill="#3F3D56" d="M344.668 93.57c-.098 1.472-.758 2.863-1.859 3.92a2.997 2.997 0 01-.32-.002c-2.67-.162-4.606-3.611-4.323-7.7.061-.947.248-1.883.555-2.786 1.708.16 3.282.935 4.392 2.16 1.109 1.225 1.667 2.805 1.555 4.407z"/>
    <path fill="#F2F2F2" d="M179.249 53.1c5.224 0 9.459-3.961 9.459-8.847 0-4.887-4.235-8.848-9.459-8.848-5.223 0-9.458 3.961-9.458 8.848 0 4.886 4.235 8.847 9.458 8.847z"/>
    <path fill="#fff" d="M180.448 40.564c-.01.198.006.396.048.59.02.212.102.414.238.585.135.17.318.302.529.382a.603.603 0 00.112.015c.416.017.791-.357.968-.905.06-.19.094-.386.103-.584a2.205 2.205 0 00-.047-.584c-.122-.563-.461-.97-.879-.987-.552-.023-1.032.644-1.072 1.488z"/>
    <path fill="#F2F2F2" d="M180.981 41.285c-.015.301.085.597.282.836a.604.604 0 00.112.015c.416.017.791-.357.968-.905a2.28 2.28 0 00.056-1.168 1.42 1.42 0 00-.978.337 1.246 1.246 0 00-.44.885z"/>
    <path fill="#fff" d="M176.308 40.393c-.038.811.343 1.492.862 1.566a.64.64 0 00.066.006c.551.023 1.031-.644 1.071-1.489a2.238 2.238 0 00-.047-.582c-.123-.564-.462-.972-.879-.99-.553-.022-1.033.645-1.073 1.49z"/>
    <path fill="#F2F2F2" d="M176.883 41.115a1.22 1.22 0 00.287.843.589.589 0 00.066.006c.551.023 1.031-.644 1.071-1.489a2.239 2.239 0 00-.047-.582 1.421 1.421 0 00-.953.35c-.256.229-.409.54-.424.872z"/>
    <path fill="#fff" d="M183.171 44.984c-.107 2.246-1.611 4.007-3.36 3.935-1.749-.072-3.081-1.952-2.974-4.197.956.515 2.03.808 3.132.854a7.294 7.294 0 003.202-.592z"/>
    <path fill="#F2F2F2" d="M229.194 144.619c5.224 0 9.459-3.962 9.459-8.848 0-4.886-4.235-8.847-9.459-8.847-5.223 0-9.458 3.961-9.458 8.847 0 4.886 4.235 8.848 9.458 8.848z"/>
    <path fill="#fff" d="M230.393 132.083c-.01.198.006.396.048.59.02.211.102.414.238.584.135.171.318.303.529.382a.53.53 0 00.112.015c.416.018.791-.357.968-.905a2.325 2.325 0 00.056-1.167c-.123-.563-.462-.97-.879-.988-.553-.023-1.032.644-1.072 1.489z"/>
    <path fill="#F2F2F2" d="M230.926 132.805c-.015.301.085.597.282.835a.605.605 0 00.112.016c.416.017.791-.358.968-.906a2.31 2.31 0 00.056-1.167 1.42 1.42 0 00-.978.337 1.246 1.246 0 00-.44.885z"/>
    <path fill="#fff" d="M226.253 131.911c-.038.811.343 1.491.862 1.565a.49.49 0 00.066.006c.551.023 1.031-.644 1.071-1.488a2.239 2.239 0 00-.047-.583c-.123-.564-.462-.971-.879-.989-.553-.022-1.033.644-1.073 1.489z"/>
    <path fill="#F2F2F2" d="M226.828 132.634c-.015.304.087.603.287.843a.493.493 0 00.066.007c.551.022 1.031-.645 1.071-1.489a2.242 2.242 0 00-.047-.583 1.42 1.42 0 00-.953.351c-.256.228-.409.54-.424.871z"/>
    <path fill="#fff" d="M233.116 136.503c-.107 2.245-1.611 4.007-3.36 3.935-1.749-.073-3.081-1.952-2.974-4.198a7.22 7.22 0 003.132.854 7.296 7.296 0 003.202-.591z"/>
    <path fill="#F2F2F2" d="M411.186 40.94c5.223 0 9.458-3.96 9.458-8.846 0-4.887-4.235-8.848-9.458-8.848-5.224 0-9.458 3.961-9.458 8.848 0 4.886 4.234 8.847 9.458 8.847z"/>
    <path fill="#fff" d="M412.384 28.405c-.01.198.007.396.048.59.02.212.103.414.238.584.135.171.318.303.529.383a.614.614 0 00.113.015c.416.017.791-.358.967-.905a2.28 2.28 0 00.057-1.168c-.123-.563-.462-.97-.88-.987-.552-.023-1.032.644-1.072 1.488z"/>
    <path fill="#F2F2F2" d="M412.917 29.125a1.22 1.22 0 00.282.836.614.614 0 00.113.015c.416.017.791-.357.967-.905a2.28 2.28 0 00.057-1.168 1.424 1.424 0 00-.979.337 1.246 1.246 0 00-.44.885z"/>
    <path fill="#fff" d="M408.245 28.233c-.039.811.342 1.492.861 1.566a.613.613 0 00.066.006c.552.023 1.031-.644 1.071-1.489a2.239 2.239 0 00-.047-.583c-.123-.564-.462-.971-.879-.988-.553-.023-1.032.644-1.072 1.488z"/>
    <path fill="#F2F2F2" d="M408.819 28.956c-.015.304.087.603.287.843a.64.64 0 00.066.006c.552.023 1.031-.644 1.071-1.489a2.24 2.24 0 00-.047-.583 1.419 1.419 0 00-.952.351c-.257.228-.409.54-.425.872z"/>
    <path fill="#fff" d="M415.107 32.825c-.107 2.246-1.611 4.007-3.36 3.935-1.749-.073-3.08-1.952-2.974-4.197.956.515 2.03.808 3.133.854a7.292 7.292 0 003.201-.592z"/>
    <path fill="#F2F2F2" d="M12.994 275.818c5.224 0 9.459-3.961 9.459-8.848 0-4.886-4.235-8.847-9.459-8.847-5.223 0-9.458 3.961-9.458 8.847 0 4.887 4.235 8.848 9.458 8.848z"/>
    <path fill="#fff" d="M14.193 263.282c-.01.198.006.396.048.59.02.212.102.414.238.584.135.171.318.303.529.382a.608.608 0 00.112.016c.416.017.791-.358.968-.906a2.275 2.275 0 00.056-1.167c-.123-.563-.462-.97-.879-.987-.553-.023-1.032.644-1.072 1.488z"/>
    <path fill="#F2F2F2" d="M14.726 264.002c-.015.301.085.597.282.836a.707.707 0 00.112.015c.416.017.791-.357.968-.905a2.295 2.295 0 00.056-1.168 1.423 1.423 0 00-.978.337 1.246 1.246 0 00-.44.885z"/>
    <path fill="#fff" d="M10.053 263.11c-.038.811.343 1.492.862 1.566a.717.717 0 00.066.006c.551.023 1.03-.644 1.07-1.489a2.225 2.225 0 00-.046-.583c-.123-.564-.462-.971-.88-.988-.552-.023-1.032.644-1.072 1.488z"/>
    <path fill="#F2F2F2" d="M10.628 263.832c-.015.304.087.603.287.843a.717.717 0 00.066.006c.551.023 1.03-.644 1.07-1.489a2.225 2.225 0 00-.046-.583 1.423 1.423 0 00-.953.351c-.257.228-.409.541-.424.872z"/>
    <path fill="#fff" d="M16.915 267.7c-.106 2.246-1.61 4.007-3.36 3.935-1.748-.073-3.08-1.952-2.974-4.197a7.31 7.31 0 006.334.262z"/>
    <path fill="#F2F2F2" d="M15.047 135.66c5.223 0 9.458-3.962 9.458-8.848 0-4.886-4.235-8.847-9.458-8.847-5.224 0-9.458 3.961-9.458 8.847 0 4.886 4.234 8.848 9.458 8.848z"/>
    <path fill="#fff" d="M16.245 123.124c-.01.198.007.396.048.59.02.211.103.414.238.584.135.171.319.303.53.382a.534.534 0 00.112.015c.416.018.79-.357.967-.905a2.29 2.29 0 00.057-1.167c-.123-.563-.462-.97-.88-.988-.552-.023-1.032.644-1.072 1.489z"/>
    <path fill="#F2F2F2" d="M16.779 123.844c-.015.301.084.597.281.836a.706.706 0 00.113.015c.416.017.79-.358.967-.905a2.29 2.29 0 00.057-1.168 1.423 1.423 0 00-.979.337 1.246 1.246 0 00-.44.885z"/>
    <path fill="#fff" d="M12.106 122.952c-.038.811.342 1.491.862 1.565a.483.483 0 00.065.007c.552.022 1.031-.645 1.071-1.489a2.225 2.225 0 00-.047-.583c-.122-.564-.462-.971-.879-.989-.553-.022-1.032.644-1.072 1.489z"/>
    <path fill="#F2F2F2" d="M12.68 123.673c-.015.305.087.604.288.843a.483.483 0 00.065.007c.552.023 1.031-.644 1.071-1.489a2.225 2.225 0 00-.047-.583 1.418 1.418 0 00-.952.351c-.257.228-.41.541-.425.871z"/>
    <path fill="#fff" d="M18.968 127.544c-.106 2.245-1.61 4.007-3.36 3.935-1.749-.073-3.08-1.952-2.974-4.198.956.516 2.03.809 3.133.854a7.294 7.294 0 003.2-.591z"/>
  </g>
  <defs>
    <clipPath id="clip0_1077_2913">
      <path fill="#fff" d="M0 0h471.857v367H0z" transform="translate(0 .665)"/>
    </clipPath>
  </defs>
</svg>
