<svg xmlns="http://www.w3.org/2000/svg" width="622" height="430" fill="none" viewBox="0 0 622 430">
  <g clip-path="url(#clip0_402_1524)">
    <path fill="#F0F0F0" d="M605.976 383.833c-2.087-14.94-11.988-29.6-27.075-34.354 6.062 15.348 6.202 32.233.395 47.668-2.263 5.945-5.433 12.334-3.208 18.292 1.384 3.707 4.718 6.527 8.433 8.277 3.716 1.751 7.83 2.568 11.892 3.368l.803.619c6.323-13.826 10.847-28.931 8.76-43.87z"/>
    <path fill="#fff" d="M578.754 349.763c8.84 9.24 14.384 20.885 15.844 33.281a24.254 24.254 0 01-.24 8.004c-.597 2.556-1.906 4.913-3.789 6.827-1.719 1.818-3.699 3.49-4.921 5.672a8.554 8.554 0 00-.401 7.33c1.12 2.969 3.298 5.379 5.515 7.666 2.462 2.539 5.061 5.14 6.126 8.523.129.409.793.196.664-.214-1.854-5.885-7.923-9.191-10.849-14.482-1.365-2.469-1.954-5.343-.715-7.97 1.083-2.297 3.123-4.022 4.88-5.848a15.47 15.47 0 003.967-6.545c.664-2.606.854-5.299.564-7.966a55.15 55.15 0 00-4.582-17.462c-2.798-6.358-6.722-12.215-11.603-17.318-.303-.315-.76.188-.46.502z"/>
    <path fill="#fff" d="M594.376 379.027c2.161-.515 4.058-1.74 5.354-3.459a8.568 8.568 0 001.718-5.921c-.039-.426-.739-.388-.7.038a7.928 7.928 0 01-1.6 5.512c-1.21 1.598-2.982 2.733-4.997 3.201-.438.102-.211.73.225.629zM591.568 397.062c-3.929-2.184-6.846-5.691-8.168-9.822-.13-.41-.794-.196-.663.213 1.384 4.297 4.427 7.941 8.521 10.205.39.215.698-.381.31-.596zM587.374 360.856a5.578 5.578 0 01-5.041-.205c-.387-.22-.695.377-.31.596a6.196 6.196 0 002.757.776 6.23 6.23 0 002.819-.538.36.36 0 00.198-.169.33.33 0 00.022-.252.345.345 0 00-.177-.191.37.37 0 00-.268-.017z"/>
    <path fill="#F0F0F0" d="M533.26 376.533c.238.144.476.288.714.437a69.756 69.756 0 019.008 6.558c.221.184.441.373.656.562 6.706 5.883 12.201 12.896 16.206 20.681a65.846 65.846 0 014.007 9.6c1.487 4.546 2.718 9.588 5.617 13.294.298.389.621.761.968 1.113l25.92-.194c.059-.029.118-.051.177-.08l1.035.037c-.043-.173-.091-.352-.134-.526-.025-.1-.055-.201-.08-.302-.018-.067-.036-.134-.049-.196l-.018-.061c-.012-.062-.031-.118-.043-.174a228.07 228.07 0 00-.829-3.004c0-.005 0-.005-.006-.011a96.879 96.879 0 00-9.055-22.007c-.12-.206-.24-.418-.372-.625a64.757 64.757 0 00-6.219-8.788 58.517 58.517 0 00-4.064-4.336 50.19 50.19 0 00-12.659-8.84c-9.335-4.583-20.113-6.285-30.025-3.368-.253.075-.501.149-.755.23z"/>
    <path fill="#fff" d="M533.321 376.844c12.928 2.333 24.751 8.467 33.791 17.532a25.622 25.622 0 014.893 6.528 13.982 13.982 0 011.311 7.613c-.217 2.432-.736 4.897-.326 7.337a8.724 8.724 0 001.482 3.48 9.267 9.267 0 002.854 2.601c2.78 1.732 6.05 2.413 9.273 2.974 3.578.622 7.305 1.216 10.305 3.309.363.253.757-.296.394-.549-5.218-3.642-12.164-2.817-17.861-5.373-2.659-1.192-4.954-3.151-5.634-5.955-.594-2.452-.061-4.994.182-7.455.32-2.535-.02-5.107-.99-7.489a23.52 23.52 0 00-4.61-6.682 60.256 60.256 0 00-14.751-11.328 65.922 65.922 0 00-20.265-7.206c-.442-.079-.487.584-.048.663z"/>
    <path fill="#fff" d="M564.382 391.295c1.399-1.644 2.136-3.706 2.079-5.817-.057-2.111-.904-4.134-2.39-5.708-.302-.318-.837.112-.534.43 1.386 1.463 2.175 3.348 2.224 5.314.049 1.966-.646 3.884-1.958 5.407-.284.332.296.704.579.374zM573.597 407.297c-4.524.499-9.081-.637-12.76-3.181-.365-.253-.759.296-.395.549 3.835 2.64 8.579 3.814 13.286 3.285.448-.051.315-.703-.131-.653zM547.25 380.782a5.138 5.138 0 01-1.716 1.854 5.503 5.503 0 01-2.439.859c-.449.046-.316.698.131.653a6.18 6.18 0 002.694-.953 5.766 5.766 0 001.909-2.039.33.33 0 00-.092-.461.367.367 0 00-.487.087z"/>
    <path fill="#A0616A" d="M435.16 233.54a5.018 5.018 0 001.684 1.351c.66.329 1.387.516 2.13.549a5.33 5.33 0 002.175-.356 5.09 5.09 0 001.812-1.196l16.598 6.843-1.617-8.783-15.514-5.151a5.312 5.312 0 00-3.459-1.068 5.264 5.264 0 00-3.335 1.379 4.748 4.748 0 00-1.526 3.131 4.673 4.673 0 001.052 3.301z"/>
    <path fill="#DA3434" d="M450.261 228.578l31.708 3.895 32.699-18.67a14.972 14.972 0 015.728-1.866 15.2 15.2 0 016.031.521 14.688 14.688 0 015.277 2.817 13.768 13.768 0 013.596 4.619 13.06 13.06 0 01.485 10.12c-1.207 3.308-3.702 6.053-6.975 7.675l-43.94 14.84-.082.029-38.552-16.277 4.025-7.703z"/>
    <path fill="#A0616A" d="M531.294 422.939h-6.74l-3.207-24.643 9.949.001-.002 24.642z"/>
    <path fill="#2F2E41" d="M533.014 429.131l-21.734-.001v-.26c0-2.127.891-4.166 2.478-5.67 1.586-1.503 3.738-2.348 5.981-2.348h.001l3.97-2.855 7.407 2.855h1.897v8.279z"/>
    <path fill="#A0616A" d="M505.174 418.912l-6.575 1.407-8.855-23.367 9.704-2.077 5.726 24.037z"/>
    <path fill="#2F2E41" d="M508.29 424.595l-21.2 4.537-.061-.254a7.67 7.67 0 011.1-6.048c1.198-1.798 3.1-3.071 5.289-3.54l3.209-3.613 7.889 1.238 1.851-.396 1.923 8.076zM539.832 272.289c3.16 9.034 2.826 18.84-.76 29.365l-1.533 59.256s2.284 38.859-5.085 52.533h-10.688l-5.292-56.082-.664-37.643-22.913 31.758 14.594 61.05-13.154 1.114-23.683-66.253 29.22-64.277 39.958-10.821z"/>
    <path fill="#DA3434" d="M496.566 281.022l2.636-6.245-1.743-5.37-.397-52.029v-.039l6.324-9.559.052-6.047 17.66-.408 1.916 4.61 3.789 2.148c4.133 2.349 7.539 5.688 9.878 9.681 2.338 3.993 3.526 8.499 3.443 13.065l-.684 35.104 1.762 3.342a6.7 6.7 0 01.202 5.873 7.05 7.05 0 01-1.828 2.459 7.53 7.53 0 01-2.746 1.509l-38.862 5.892-1.402-3.986z"/>
    <path fill="#A0616A" d="M510.651 195.593c8.862 0 16.046-6.809 16.046-15.209 0-8.4-7.184-15.209-16.046-15.209-8.862 0-16.047 6.809-16.047 15.209 0 8.4 7.185 15.209 16.047 15.209z"/>
    <path fill="#2F2E41" d="M527.36 183.699c.479-1.911.259-4.6-.011-6.524a17.653 17.653 0 00-2.657-7.162 18.714 18.714 0 00-5.499-5.52 6.056 6.056 0 00-2.926-1.102 2.63 2.63 0 00-1.52.337 2.437 2.437 0 00-1.02 1.119 4.996 4.996 0 00-1.181-1.688 5.3 5.3 0 00-1.79-1.104 9.746 9.746 0 00-4.229-.54 15.986 15.986 0 00-7.718 2.682c-2.27 1.538-4.058 3.63-5.175 6.053-.429.966-1.626-2.599-2.169-1.687a4.213 4.213 0 01-2.426 2.02c-1.064.281-1.496 4.436-1.915 3.467a4.415 4.415 0 00.458 4.437 4.797 4.797 0 001.829 1.514 5.095 5.095 0 002.373.49 28.352 28.352 0 003.188-.578 8.289 8.289 0 015.481 1.255c1.603 1.039 2.75 2.598 3.224 4.384a9.715 9.715 0 011.385-2.922 3.498 3.498 0 011.24-1.073 3.709 3.709 0 011.62-.416 4.165 4.165 0 011.54.48c.473.258.886.605 1.212 1.019.707.786 1.237 1.704 1.949 2.486 2.088 2.294 4.912 7.645 7.888 7.255 2.349-.308 6.196-6.072 6.849-8.682z"/>
    <path fill="#A0616A" d="M450.831 273.906a5.327 5.327 0 002.167.398 5.311 5.311 0 002.141-.508 5.062 5.062 0 001.714-1.319 4.733 4.733 0 00.963-1.882l18.008-1.725-5.941-6.911-16.19 2.697a5.347 5.347 0 00-3.568.672 4.891 4.891 0 00-2.198 2.748 4.622 4.622 0 00.284 3.438 5.004 5.004 0 002.62 2.392z"/>
    <path fill="#DA3434" d="M461.445 262.579l29.668-11.298 18.891-31.441a13.974 13.974 0 014.033-4.282 14.84 14.84 0 015.53-2.341 15.25 15.25 0 016.057.012 14.852 14.852 0 015.52 2.362c2.97 2.08 4.988 5.158 5.643 8.603.654 3.445-.106 6.996-2.125 9.927l-30.671 33.311-.058.062-42.025 3.671-.463-8.586z"/>
    <path fill="#45B829" d="M447.993 288.737H326.279a3.297 3.297 0 01-2.261-.889 2.956 2.956 0 01-.938-2.143v-46.809a2.96 2.96 0 01.938-2.144 3.297 3.297 0 012.261-.889h121.714a3.297 3.297 0 012.261.889c.6.569.937 1.34.938 2.144v46.809a2.956 2.956 0 01-.938 2.143c-.6.568-1.413.888-2.261.889z"/>
    <path fill="#E4E4E4" d="M436.404 311.192h-98.535a4.006 4.006 0 01-1.471-.276 3.84 3.84 0 01-1.247-.788 3.614 3.614 0 01-.834-1.181 3.474 3.474 0 010-2.787c.193-.442.476-.844.834-1.182.357-.338.78-.605 1.247-.788a4.027 4.027 0 011.471-.276h98.535c4.95-.065 5 7.344 0 7.278zM436.404 327.87h-98.535a3.952 3.952 0 01-2.715-1.066 3.544 3.544 0 01-1.124-2.573c0-.965.404-1.891 1.124-2.573a3.952 3.952 0 012.715-1.066h98.535c4.951-.065 5 7.344 0 7.278zM436.404 344.546h-98.535a4.026 4.026 0 01-1.471-.275 3.86 3.86 0 01-1.247-.789 3.614 3.614 0 01-.834-1.181 3.474 3.474 0 010-2.787c.193-.442.476-.843.834-1.181a3.86 3.86 0 011.247-.789 4.026 4.026 0 011.471-.275h98.535c4.95-.066 5 7.343 0 7.277z"/>
    <path fill="#F0F0F0" d="M22.328 164.583C.902 137.9-7.729 100.041 8.22 70.109c15.827 33.237 43.546 60.097 78.255 75.828 13.41 6.02 28.984 11.393 35.332 24.105 3.949 7.909 3.352 17.315.385 25.601-2.968 8.287-8.11 15.691-13.198 22.993l-.243 2.172c-32.86-12.425-64.995-29.542-86.422-56.225z"/>
    <path fill="#fff" d="M8.921 70.34c1.313 27.434 11.882 54.649 30.064 76.085 3.93 4.634 8.344 9.011 13.623 12.277 5.171 3.146 11.137 4.922 17.278 5.143 5.721.316 11.612.011 17.152 1.639 5.84 1.716 10.193 5.782 12.763 10.973 3.145 6.351 3.694 13.394 3.979 20.3.317 7.667.517 15.635 4.433 22.559.474.839-.927 1.487-1.4.65-6.813-12.046-2.702-26.286-6.84-38.988-1.931-5.927-5.758-11.338-12.06-13.643-5.51-2.015-11.584-1.705-17.38-1.977-6.086-.285-11.785-1.505-17.092-4.432-5.43-2.994-10.032-7.217-14.07-11.736-9.078-10.311-16.389-21.912-21.664-34.376-6.104-14.193-9.602-29.272-10.341-44.583-.046-.948 1.51-.833 1.555.109z"/>
    <path fill="#fff" d="M32.687 139.752c-4.262 2.401-9.286 3.287-14.174 2.5-4.889-.786-9.323-3.194-12.511-6.793-.642-.73.525-1.71 1.168-.979 2.962 3.356 7.093 5.599 11.646 6.322 4.554.724 9.23-.12 13.186-2.377.86-.49 1.54.84.685 1.327zM66.963 164.048c2.588-9.288 1.388-19.16-3.362-27.646-.47-.841.93-1.49 1.4-.65 4.926 8.84 6.153 19.115 3.437 28.775-.26.92-1.733.436-1.475-.479zM13.67 100.662a11.91 11.91 0 004.85-2.997 11.054 11.054 0 002.768-4.82c.247-.923 1.72-.438 1.475.48a12.39 12.39 0 01-3.067 5.323 13.343 13.343 0 01-5.34 3.342.85.85 0 01-.593.026.798.798 0 01-.45-.365.707.707 0 01-.036-.564.758.758 0 01.393-.425z"/>
    <path fill="#F0F0F0" d="M125.028 44.964c-.137.58-.274 1.161-.402 1.751a140.307 140.307 0 00-3.368 23.744c-.045.617-.08 1.243-.106 1.86-.849 19.256 2.081 38.493 8.641 56.735a147.188 147.188 0 009.561 21.111c5.176 9.387 11.575 19.174 13.131 29.334.175 1.058.281 2.126.316 3.196l-41.236 38.226c-.139.042-.27.094-.411.136l-1.572 1.598c-.219-.338-.439-.693-.658-1.03-.128-.196-.247-.4-.375-.595-.082-.133-.164-.267-.247-.382a2.954 2.954 0 01-.073-.124c-.082-.116-.146-.231-.219-.338a503.867 503.867 0 01-3.662-5.974c-.009-.009-.009-.009-.009-.027-9.163-15.285-17.061-31.43-22.123-48.198-.152-.504-.313-1.017-.447-1.539a137.62 137.62 0 01-4.726-23.116c-.483-4.28-.737-8.581-.76-12.885a101.005 101.005 0 015.352-32.773c7.153-21.112 21.35-39.82 41.821-49.95.524-.26 1.039-.51 1.572-.76z"/>
    <path fill="#fff" d="M125.447 45.546c-16.378 22.655-25.227 50.415-24.326 77.906.194 5.944.938 11.957 3.078 17.577 2.131 5.463 5.767 10.285 10.529 13.966 4.367 3.517 9.265 6.635 12.654 11.096 3.573 4.703 4.465 10.434 3.22 16.045-1.523 6.865-5.558 12.803-9.717 18.479-4.617 6.302-9.519 12.779-10.791 20.542-.154.94-1.684.659-1.531-.28 2.213-13.506 14.541-22.53 19.305-35.033 2.223-5.834 2.604-12.339-.963-17.775-3.119-4.753-8.167-7.972-12.621-11.497-4.678-3.7-8.453-7.927-10.832-13.292-2.433-5.489-3.426-11.487-3.78-17.4a121.753 121.753 0 014.539-39.81c4.142-14.816 10.928-28.85 20.063-41.498.566-.783 1.735.197 1.173.974z"/>
    <path fill="#fff" d="M100.331 114.531c-4.929-.516-9.503-2.675-12.906-6.092-3.404-3.417-5.415-7.87-5.674-12.563-.05-.95 1.505-1.067 1.554-.116.234 4.371 2.107 8.518 5.283 11.694 3.177 3.176 7.446 5.172 12.038 5.626.998.1.697 1.551-.295 1.451zM112.265 153.489c7.967-5.939 13.279-14.506 14.877-23.992.158-.94 1.689-.659 1.531.28-1.683 9.869-7.23 18.773-15.534 24.936-.792.587-1.661-.64-.874-1.224zM109.977 72.467c1.863.576 3.847.705 5.776.374 1.928-.33 3.74-1.11 5.272-2.268.783-.596 1.652.632.873 1.224a13.617 13.617 0 01-5.83 2.5c-2.13.37-4.323.24-6.387-.379a.804.804 0 01-.489-.317.733.733 0 01-.129-.549.745.745 0 01.33-.47.82.82 0 01.584-.115z"/>
    <path fill="#2F2E41" d="M136.026 119.479c9.541 0 17.275-7.331 17.275-16.374s-7.734-16.374-17.275-16.374c-9.541 0-17.276 7.331-17.276 16.374s7.735 16.374 17.276 16.374z"/>
    <path fill="#D1D3D4" d="M230.551 260.674H108.837a3.297 3.297 0 01-2.261-.889 2.963 2.963 0 01-.938-2.144v-46.809a2.96 2.96 0 01.938-2.143 3.297 3.297 0 012.261-.889h121.714c.848.001 1.661.32 2.261.889.6.568.937 1.339.938 2.143v46.809a2.96 2.96 0 01-.938 2.144c-.6.568-1.413.888-2.261.889z"/>
    <path fill="#E4E4E4" d="M218.962 283.128h-98.535a3.948 3.948 0 01-2.704-1.071 3.545 3.545 0 01-1.118-2.567c0-.962.402-1.886 1.118-2.567a3.95 3.95 0 012.704-1.072h98.535c4.951-.065 5 7.344 0 7.277zM218.962 299.806h-98.535a4.03 4.03 0 01-1.471-.275 3.87 3.87 0 01-1.247-.789 3.644 3.644 0 01-.834-1.181 3.478 3.478 0 010-2.787c.194-.442.477-.843.834-1.181a3.87 3.87 0 011.247-.789 4.03 4.03 0 011.471-.275h98.535c4.951-.066 5 7.343 0 7.277zM218.962 316.483h-98.535a3.948 3.948 0 01-2.715-1.066 3.544 3.544 0 01-1.124-2.573c0-.965.404-1.89 1.124-2.573a3.951 3.951 0 012.715-1.065h98.535c4.951-.066 5 7.343 0 7.277z"/>
    <path fill="#FFB6B6" d="M227.053 135.441a5.686 5.686 0 01-1.81 1.661 6.1 6.1 0 01-4.887.53 5.868 5.868 0 01-2.159-1.23l-43.128 17.449 1.134-10.117 42.03-15.446a6.022 6.022 0 013.853-1.466 6.044 6.044 0 013.909 1.33 5.466 5.466 0 011.99 3.454 5.315 5.315 0 01-.932 3.835z"/>
    <path fill="#AC49C5" d="M139.268 134.502s-5.332 4.909-.04 11.226c5.291 6.317 31.456 10.424 35.652 11.206 4.196.782 27.538-14.267 27.538-14.267l2.261-10.902-26.055 8.472-39.356-5.735z"/>
    <path fill="#FFB6B6" d="M124.948 171.747l.42 7.561s-1.239 6.699-.22 8.144c1.011 1.438 28.615 1.62 28.615 1.62s1.824-9.319 3.395-17.476l-32.21.151zM204.312 271.726l5.771-1.104-1.652-22.094-8.517 1.631 4.398 21.567zM212.578 242.975l5.364-2.286-6.959-21.139-7.918 3.375 9.513 20.05z"/>
    <path fill="#2F2E41" d="M217.251 231.065l-10.102 5.421-24.912-37.944c-17.489 11.168-34.59 16.516-51.83 19.37-5.829.983-11.772.485-12.891-5.138a10.132 10.132 0 01-.125-.793c-.688-6.142 7.372-14.015 8.397-21.529l22.061-1.256 2.72 3.306 25.513-14.866a11.355 11.355 0 014.041-1.374c1.43-.2 2.887-.131 4.288.205 1.401.336 2.718.931 3.876 1.752a10.584 10.584 0 012.867 3.029c.169.263.325.532.47.809l25.627 49.008z"/>
    <path fill="#2F2E41" d="M211.068 256.59l-11.559 1.018-20.957-40.626c-20.782 3.388-40.389 4.473-57.347.375-2.784-.697-5.167-2.404-6.634-4.752-1.467-2.349-1.9-5.15-1.205-7.799.066-.26.142-.517.229-.772 2.029-5.869 7.342-10.022 11.528-16.477l30.574.44-3.415 11.168 29.701-3.643a11.544 11.544 0 014.281.318 11.194 11.194 0 013.822 1.854 10.555 10.555 0 012.777 3.104 10.009 10.009 0 011.304 3.877c.04.305.066.612.078.92l16.823 50.995z"/>
    <path fill="#FFB6B6" d="M136.886 120.861c6.857 0 12.415-5.268 12.415-11.767s-5.558-11.767-12.415-11.767c-6.856 0-12.415 5.268-12.415 11.767s5.559 11.767 12.415 11.767z"/>
    <path fill="#AC49C5" d="M129.608 125.109l11.383 1.27c.48.053.931.247 1.289.555.358.308.606.714.709 1.161l1.81 7.852 11.285 12.596s4.053 7.202 2.533 15.363c-1.519 8.162-2.187 14.227-2.187 14.227s-30.272 10.758-31.285 9.318c-1.013-1.441-1.342-7.983-1.342-7.983l-4.052-42.73s4.559-7.202 7.091-7.202c1.635-.052 1.425-3.539 2.766-4.427z"/>
    <path fill="#6C63FF" d="M156.738 180.76c1.596 0 2.89-1.472 2.89-3.288 0-1.816-1.294-3.287-2.89-3.287-1.597 0-2.891 1.471-2.891 3.287 0 1.816 1.294 3.288 2.891 3.288z"/>
    <path fill="#2F2E41" d="M201.448 266.038l8.798-4.18 1.658 3.667 11.125 2.132c.55.105 1.049.374 1.426.767.377.394.611.891.669 1.419a2.39 2.39 0 01-.349 1.519 2.585 2.585 0 01-1.231 1.027l-10.749 4.368-3.493-2.874.917 3.92-4.053 1.647-4.718-13.412zM210.06 241.217l8.719-4.325 1.726 3.638 11.163 1.946a2.674 2.674 0 011.44.743c.384.388.628.881.695 1.408a2.385 2.385 0 01-.321 1.525c-.275.462-.7.829-1.211 1.047l-10.667 4.546-3.546-2.815.99 3.905-4.022 1.714-4.966-13.332zM129.793 105.403c-3.28.005-6.481-.952-9.164-2.741l-.09-.059v-.104c.004-3.007 1.266-5.89 3.509-8.016 2.244-2.126 5.285-3.322 8.458-3.326h5.038c3.173.004 6.215 1.2 8.458 3.326 2.244 2.126 3.505 5.01 3.509 8.016a2.568 2.568 0 01-.799 1.839 2.86 2.86 0 01-1.926.789l-16.71.273a13.35 13.35 0 01-.283.003z"/>
    <path fill="#FFB6B6" d="M179.765 196.935a6.118 6.118 0 01-2.5-.3 5.859 5.859 0 01-2.13-1.275 5.48 5.48 0 01-1.361-2.009 5.229 5.229 0 01-.337-2.366l-41.333-20.994 9.041-5.486 38.995 21.434a5.925 5.925 0 013.617 1.934 5.356 5.356 0 011.348 3.722 5.391 5.391 0 01-1.6 3.632 5.975 5.975 0 01-3.74 1.708z"/>
    <path fill="#AC49C5" d="M125.655 131.411s-7.376-.876-9.269 6.988c-1.893 7.864 11.083 29.787 13.063 33.38 1.98 3.593 28.964 11.451 28.964 11.451l10.391-5.144-23.266-13.977-19.883-32.698z"/>
    <path fill="#2F2E41" d="M138.808 92.91c1.161-1.35.253-3.35-.699-4.839a196.087 196.087 0 00-6.873-10.045c-2.999-4.103-6.631-8.392-11.794-9.376-4.708-.897-9.45 1.224-13.501 3.669-3.982 2.404-7.904 5.432-9.42 9.67-1.45 4.056-.431 8.56 1.374 12.486 1.545 3.363 3.625 7.384 1.42 10.398a8.54 8.54 0 01-4.076 2.63 30.574 30.574 0 01-12.8 1.79c5.979-.061 11.212 5.757 17.007 4.365 3.286-.789 5.475-3.693 7.05-6.538a17.72 17.72 0 002.301-6.176c.383-2.948-.446-6.05.6-8.849 1.088-2.913 3.981-4.863 6.9-6.239 1.939-.914 4.052-1.677 6.211-1.522 6.12.44 9.29 7.579 15.097 9.461"/>
    <path fill="#3B5ADB" d="M346.8 132.754H225.086a3.297 3.297 0 01-2.261-.889 2.963 2.963 0 01-.938-2.144V82.912a2.96 2.96 0 01.938-2.143 3.295 3.295 0 012.261-.89H346.8c.848.002 1.661.322 2.261.89.6.569.937 1.34.938 2.143v46.809a2.96 2.96 0 01-.938 2.144c-.6.568-1.413.888-2.261.889z"/>
    <path fill="#E4E4E4" d="M335.211 155.209h-98.535a3.952 3.952 0 01-2.715-1.066 3.546 3.546 0 01-1.124-2.573c0-.965.404-1.891 1.124-2.573a3.948 3.948 0 012.715-1.066h98.535c4.951-.065 5 7.344 0 7.278zM335.211 171.886h-98.535a4.026 4.026 0 01-1.471-.275 3.87 3.87 0 01-1.247-.789 3.629 3.629 0 01-.834-1.181 3.478 3.478 0 01-.293-1.393c0-.479.1-.952.293-1.394.193-.442.477-.843.834-1.181a3.87 3.87 0 011.247-.789 4.026 4.026 0 011.471-.275h98.535c4.951-.066 5 7.343 0 7.277zM335.211 188.564h-98.535a3.948 3.948 0 01-2.715-1.066 3.544 3.544 0 01-1.124-2.573c0-.965.404-1.89 1.124-2.573a3.951 3.951 0 012.715-1.065h98.535c4.951-.066 5 7.343 0 7.277z"/>
    <path fill="#fff" d="M79.932 10.983c1.79 0 3.242-1.376 3.242-3.073s-1.452-3.073-3.242-3.073c-1.791 0-3.243 1.376-3.243 3.073s1.452 3.073 3.243 3.073zM92.239 10.983c1.79 0 3.242-1.376 3.242-3.073S94.03 4.837 92.24 4.837s-3.243 1.376-3.243 3.073 1.452 3.073 3.243 3.073zM104.546 10.983c1.791 0 3.243-1.376 3.243-3.073s-1.452-3.073-3.243-3.073c-1.79 0-3.242 1.376-3.242 3.073s1.452 3.073 3.242 3.073zM464.624 5.795h-14.172a1.08 1.08 0 01-.737-.295.969.969 0 01-.304-.7c0-.263.109-.515.304-.701a1.08 1.08 0 01.737-.294h14.172c.277.002.542.108.737.294a.969.969 0 01.304.7.969.969 0 01-.304.701 1.08 1.08 0 01-.737.295zM464.624 9.526h-14.172a1.08 1.08 0 01-.742-.291.97.97 0 01-.308-.704.97.97 0 01.308-.703 1.08 1.08 0 01.742-.292h14.172c.139-.001.276.024.405.073.128.05.245.123.343.216a.981.981 0 01.311.706.956.956 0 01-.311.707 1.053 1.053 0 01-.343.215c-.129.05-.266.074-.405.073zM464.624 13.258h-14.172a1.08 1.08 0 01-.742-.292.97.97 0 01-.308-.703.97.97 0 01.308-.704 1.08 1.08 0 01.742-.291h14.172c.279 0 .546.104.742.291a.97.97 0 01.308.704.97.97 0 01-.308.703 1.076 1.076 0 01-.742.292z"/>
  </g>
  <defs>
    <clipPath id="clip0_402_1524">
      <path fill="#fff" d="M0 0h622v430H0z"/>
    </clipPath>
  </defs>
</svg>
