<svg xmlns="http://www.w3.org/2000/svg" width="527" height="363" fill="none" viewBox="0 0 527 363">
  <g clip-path="url(#clip0_756_3178)">
    <path stroke="#E6E7E8" stroke-miterlimit="10" stroke-width="16" d="M385.333 54.576H141.667c-8.616 0-15.602 6.985-15.602 15.602V199.82c0 8.617 6.986 15.602 15.602 15.602h243.666c8.617 0 15.602-6.985 15.602-15.602V70.178c0-8.617-6.985-15.602-15.602-15.602z"/>
    <path fill="#E6E7E8" d="M282.718 122.287c10.613 0 19.217-8.604 19.217-19.218 0-10.613-8.604-19.217-19.217-19.217-10.614 0-19.218 8.604-19.218 19.217 0 10.614 8.604 19.218 19.218 19.218z"/>
    <path fill="#E6E7E8" stroke="#E6E7E8" stroke-miterlimit="10" stroke-width="11" d="M128.737 182.88c1.087-1.716 55.284-52.898 55.067-53.115-.217-.218 54.637 40.328 55.496 40.546.858.217 97.34-45.198 97.34-45.198l62.659 42.818s-1.087 36.616-1.516 36.204c-.429-.412-4.119 5.852-4.119 5.852l-5.207 2.604c-.864.434-8.89.869-9.537 0-.646-.87-244.976-3.691-245.629-3.473-.652.217-3.684-12.793-4.577-12.358-.892.435-1.716-8.891-1.716-8.891l1.739-4.989z"/>
  </g>
  <path fill="#BEBEBE" d="M146.9 283.025l3.2-.025 3.875-13.15 3.65 13.15h3.225l5.15-17.375h-3.05l-3.625 14.075-3.625-14.075h-3.2l-3.9 14.15-3.6-14.15h-3.025l4.925 17.4zm20.501-6.975c0 4.25 2.875 7.175 6.5 7.175 2.25 0 3.9-1.125 4.775-2.3v2.3c0 2.75-1.65 4.1-3.85 4.1-1.975 0-3.5-.975-3.925-2.4h-2.825c.35 3.05 3.075 4.875 6.75 4.875 4.3 0 6.725-2.825 6.725-6.575v-14h-2.875v2c-.85-1.175-2.525-2.225-4.775-2.225-3.625 0-6.5 2.8-6.5 7.05zm11.275.05c0 2.975-2.025 4.65-4.175 4.65-2.125 0-4.175-1.725-4.175-4.7s2.05-4.575 4.175-4.575c2.15 0 4.175 1.675 4.175 4.625zm9.468-.35c0-2.925 1.3-3.8 3.4-3.8h.725V269c-1.95 0-3.325.85-4.125 2.225v-2h-2.85V283h2.85v-7.25zm5.795.3c0 4.25 2.875 7.175 6.45 7.175 2.3 0 3.95-1.1 4.825-2.275V283h2.875v-13.775h-2.875v2c-.85-1.125-2.45-2.225-4.775-2.225-3.625 0-6.5 2.8-6.5 7.05zm11.275.05c0 2.975-2.025 4.65-4.175 4.65-2.125 0-4.175-1.725-4.175-4.7s2.05-4.575 4.175-4.575c2.15 0 4.175 1.675 4.175 4.625zm8.068-8.7c1 0 1.8-.8 1.8-1.825s-.8-1.825-1.8-1.825c-1.025 0-1.825.8-1.825 1.825s.8 1.825 1.825 1.825zm-1.45 1.825V285.7c0 1.025-.4 1.45-1.6 1.45h-.975v2.4h1.475c2.45 0 3.95-1.05 3.95-3.85v-16.475h-2.85zm21.861 0h-9.55v2.325h6.275l-6.275 9.125V283h9.55v-2.325h-6.25l6.25-9.125v-2.325zm2.043 6.825c0 4.25 2.875 7.175 6.5 7.175 2.25 0 3.9-1.05 4.775-2.3V283h2.875v-18.5h-2.875v6.65c-1.05-1.3-2.95-2.15-4.75-2.15-3.65 0-6.525 2.8-6.525 7.05zm11.275.05c0 2.975-2.025 4.65-4.175 4.65-2.125 0-4.175-1.725-4.175-4.7s2.05-4.575 4.175-4.575c2.15 0 4.175 1.675 4.175 4.625zm8.068-8.7c1 0 1.8-.8 1.8-1.825s-.8-1.825-1.8-1.825c-1.025 0-1.825.8-1.825 1.825s.8 1.825 1.825 1.825zm-1.45 1.825V285.7c0 1.025-.4 1.45-1.6 1.45h-.975v2.4h1.475c2.45 0 3.95-1.05 3.95-3.85v-16.475h-2.85zm12.392 2.175c2.125 0 3.8 1.35 3.85 3.475h-7.625c.3-2.175 1.85-3.475 3.775-3.475zm3.15 16.15v-1.825c-.575.225-1.175.35-1.65.35-.85 0-1.375-.45-1.375-1.15 0-.6.35-1.1 1.425-1.65l.6-.3c2.225-.6 3.7-2.2 4.3-4.075h-3.075c-.525 1.075-1.5 1.925-3.25 1.925-2.1 0-3.725-1.375-3.925-3.65h10.525c.075-.475.1-.925.1-1.4 0-4.05-2.775-6.775-6.7-6.775-4.075 0-6.875 2.775-6.875 7.1 0 3.8 2.275 6.425 5.5 7-.675.675-.95 1.4-.95 2.125 0 2 1.75 2.7 3.325 2.7.725 0 1.45-.15 2.025-.375zm5.529-11.45c0 4.325 2.8 7.125 6.75 7.125 3.375 0 5.575-1.875 6.35-4.575h-3.075c-.525 1.425-1.575 2.175-3.275 2.175-2.3 0-3.825-1.7-3.825-4.725 0-3 1.525-4.7 3.825-4.7 1.7 0 2.8.85 3.275 2.175h3.075c-.775-2.9-2.975-4.575-6.35-4.575-3.95 0-6.75 2.8-6.75 7.1zm15.941 6.9h2.85v-13.775h-2.85V283zm1.45-15.6c1 0 1.8-.8 1.8-1.825s-.8-1.825-1.8-1.825c-1.025 0-1.825.8-1.825 1.825s.8 1.825 1.825 1.825zm10.941 4c2.125 0 3.8 1.35 3.85 3.475h-7.625c.3-2.175 1.85-3.475 3.775-3.475zm6.45 7.5h-3.075c-.525 1.075-1.5 1.925-3.25 1.925-2.1 0-3.725-1.375-3.925-3.65h10.525c.075-.475.1-.925.1-1.4 0-4.05-2.775-6.775-6.7-6.775-4.075 0-6.875 2.775-6.875 7.1 0 4.325 2.925 7.125 6.875 7.125 3.375 0 5.55-1.925 6.325-4.325zm8.724-2.85c0 4.25 2.875 7.175 6.425 7.175 2.325 0 4.05-1.15 4.85-2.225v8.55h2.875v-20.325h-2.875v2c-.8-1.125-2.475-2.225-4.75-2.225-3.65 0-6.525 2.8-6.525 7.05zm11.275.05c0 2.975-2.025 4.65-4.175 4.65-2.125 0-4.175-1.725-4.175-4.7s2.05-4.575 4.175-4.575c2.15 0 4.175 1.675 4.175 4.625zm19.094-6.875h-2.85v7.675c0 2.525-1.375 3.825-3.475 3.825-2.075 0-3.45-1.3-3.45-3.825v-7.675h-2.825v8.1c0 3.85 2.45 5.875 5.675 5.875 1.625 0 3.175-.675 4.075-1.85V283h2.85v-13.775zm3.76 13.775h2.85v-13.775h-2.85V283zm1.45-15.6c1 0 1.8-.8 1.8-1.825s-.8-1.825-1.8-1.825c-1.025 0-1.825.8-1.825 1.825s.8 1.825 1.825 1.825zm13.917 1.825h-9.55v2.325h6.275l-6.275 9.125V283h9.55v-2.325h-6.25l6.25-9.125v-2.325zm15.467 0h-2.85v7.675c0 2.525-1.375 3.825-3.475 3.825-2.075 0-3.45-1.3-3.45-3.825v-7.675h-2.825v8.1c0 3.85 2.45 5.875 5.675 5.875 1.625 0 3.175-.675 4.075-1.85V283h2.85v-13.775z"/>
  <rect width="522" height="358" x="2.5" y="2.5" stroke="#E7E8E9" stroke-dasharray="15 15" stroke-width="5" rx="7.5"/>
  <defs>
    <clipPath id="clip0_756_3178">
      <path fill="#fff" d="M0 0h284.024v170H0z" transform="translate(121.488 50)"/>
    </clipPath>
  </defs>
</svg>
